<svg id="Layer_1" enable-background="new 0 0 512.002 512.002" height="512" viewBox="0 0 512.002 512.002" width="512" xmlns="http://www.w3.org/2000/svg"><g><g fill="#020288"><path d="m386.982 0h-351.999c-16.542 0-30 13.458-30 30v309.996c0 16.542 13.458 30 30 30h303.239c13.268-.528 13.258-19.476 0-20h-303.239c-5.514 0-10-4.486-10-10v-239.996h110c24.146 0 44.349-17.206 48.995-40h213.003v147.001c.529 13.268 19.476 13.258 20 0v-177.001c.001-16.542-13.457-30-29.999-30zm-211.999 40c-5.523 0-10 4.478-10 10 0 16.542-13.458 30-30 30h-110v-50c0-5.514 4.486-10 10-10h351.998c5.514 0 10 4.486 10 10v10z"/><path d="m134.987 40h-.007c-5.523 0-9.997 4.478-9.997 10 .528 13.263 19.479 13.263 20.004 0 0-5.522-4.477-10-10-10z"/><path d="m94.985 40h-.007c-5.523 0-9.997 4.478-9.997 10 .528 13.263 19.479 13.263 20.004 0 0-5.522-4.477-10-10-10z"/><path d="m54.984 40h-.008c-5.523 0-9.996 4.478-9.996 10 .528 13.263 19.479 13.263 20.004 0 0-5.522-4.477-10-10-10z"/><path d="m366.981 120h-151.998c-13.268.528-13.258 19.476 0 20h151.998c13.268-.528 13.258-19.476 0-20z"/><path d="m366.981 160h-151.998c-13.268.528-13.258 19.476 0 20h151.998c13.268-.528 13.258-19.476 0-20z"/><path d="m258.763 200h-43.779c-13.268.528-13.258 19.476 0 20h43.779c13.268-.528 13.258-19.476 0-20z"/><path d="m258.763 254.998h-203.78c-13.268.528-13.258 19.476 0 20h203.779c13.269-.528 13.259-19.476.001-20z"/><path d="m258.763 294.998h-203.78c-13.268.528-13.258 19.476 0 20h203.779c13.269-.528 13.259-19.476.001-20z"/></g><g clip-rule="evenodd" fill="#fff69b" fill-rule="evenodd"><path d="m356.985 422.002c0-18.628-2.673-24.147-29.574-59.43-49.909-64.525-2.793-161.042 79.574-160.57 82.402-.462 129.466 96.067 79.574 160.57-26.901 35.283-29.574 40.802-29.574 59.43z"/><path d="m54.984 130h120v80h-120z"/></g><path d="m456.985 412.002h-40v-85.857l17.071-17.072c3.905-3.905 3.905-10.237 0-14.143-3.905-3.904-10.237-3.904-14.142 0l-12.929 12.93-12.929-12.93c-3.904-3.903-10.237-3.903-14.142 0-3.905 3.905-3.906 10.237 0 14.143l17.071 17.072v85.857h-40c-5.523 0-10 4.478-10 10v60c0 16.542 13.458 30 30 30h60c16.542 0 30-13.458 30-30v-60c0-5.523-4.477-10-10-10zm-10 20v20h-80v-20zm-10 60h-60c-5.514 0-10-4.486-10-10v-10h80v10c0 5.514-4.486 10-10 10z" fill="#020288"/></g></svg>